<?xml version="1.0" encoding="utf-8"?>
<!-- Generator: Adobe Illustrator 16.0.3, SVG Export Plug-In . SVG Version: 6.00 Build 0)  -->
<!DOCTYPE svg PUBLIC "-//W3C//DTD SVG 1.1//EN" "http://www.w3.org/Graphics/SVG/1.1/DTD/svg11.dtd">
<svg version="1.1" id="Capa_1" xmlns="http://www.w3.org/2000/svg" xmlns:xlink="http://www.w3.org/1999/xlink" x="0px" y="0px"
	 width="200px" height="100px" viewBox="0 0 200 100" enable-background="new 0 0 200 100" xml:space="preserve">
<path fill-rule="evenodd" clip-rule="evenodd" fill="#F6A401" d="M115.795,39.87c2.826,0.584,5.625,1.204,8.484,1.745
	c5.236,0.992,7.77,3.408,6.321,6.125c-1.704,3.196-8.364,5.771-16.342,6.26c-3.117,0.191-6.258,0.233-9.368-0.092
	c0.282-0.613,1.711-1.386-0.921-1.592c-0.215-0.174-0.303-0.359-0.253-0.562c1.538-1.29,4.488-1.94,6.016-3.234
	c1.258-0.778,1.829-1.704,2.328-2.645c0.089-0.198,0.204-0.39,0.322-0.583c1.4-1.784-0.855-3.389-1.025-5.097
	C112.725,39.708,114.149,39.42,115.795,39.87z"/>
<path fill-rule="evenodd" clip-rule="evenodd" fill="#06235A" d="M9.693,35.346c20.108-1.518,37.982-5.625,54.472-11.376
	c5.764-2.01,11.091-4.253,16.109-6.694c1.053-0.512,1.708-1.415,4.142-1.274c-0.912,1.772-3.931,2.774-6.01,3.858
	c-18.631,9.716-41.494,15.86-67.871,18.807c-4.741,0.53-5.758-1.998-8.582-3.186c0.856,0,1.713,0,2.57,0
	C6.267,35.622,8.023,35.89,9.693,35.346z"/>
<path fill-rule="evenodd" clip-rule="evenodd" fill="#17096A" d="M158.836,73.017c0.899-4.716,3.9-9.158,7.468-13.507
	c5.042-6.146,11.756-11.828,20.111-17.035c5.292-3.298,5.243-3.317,13.91-1.955c-5.317,2.513-10.654,4.918-15.099,7.749
	c-11.097,7.067-18.383,15.019-22.897,23.635c-0.437,0.834-1.25,1.62-1.889,2.428C158.258,74.383,159.77,73.336,158.836,73.017z"/>
<path fill-rule="evenodd" clip-rule="evenodd" fill="#17096A" d="M163.084,34.541c-9.676-1.765-18.217-4.514-26.346-7.57
	c-12.172-4.574-22.651-9.966-31.118-16.273c-4.152-3.093-4.107-3.108,1.349-6.497c4.856,6.049,12.561,11.086,20.435,16.071
	c1.966,0.837,3.799,1.74,5.494,2.711c10.219,4.059,20.91,7.784,32.22,11.07C164.682,34.46,164.185,34.806,163.084,34.541z"/>
<path fill-rule="evenodd" clip-rule="evenodd" fill="#FEED00" d="M65.569,47.346c-3.777-2.905-0.646-7.709,5.114-9.539
	c5.402-1.716,10.326-2.766,16.297-0.978c0.129,1.292-2.279,1.74-3.51,2.579c-0.483,0.271-0.913,0.562-1.276,0.875
	c-0.248,0.231-0.503,0.462-0.737,0.697c-0.287,0.321-0.527,0.65-0.734,0.987c-0.323,0.518-0.655,1.033-0.698,1.58
	c-0.004,0.284-0.012,0.566-0.015,0.85c-0.014,0.685,0.045,1.364,0.523,2.018c0.3,0.496,0.646,0.983,1.074,1.457
	c0.556,0.732,1.275,1.464,0.074,2.209C75.911,49.743,70.669,48.646,65.569,47.346z"/>
<path fill-rule="evenodd" clip-rule="evenodd" fill="#1F0D81" d="M43.198,79.064c0.846,1.058,0.758,2.156,0.6,3.259
	c-0.496,1.315-0.508,2.63,0.005,3.945c0.163,1.1,0.274,2.197-0.605,3.25c-0.574-0.192-0.644-0.524-0.622-0.577
	c0.345,0.313-0.15,0.899,0.011,1.46c0.16,0.841-0.068,1.629-1.233,2.295c-2.015,0.404-4.03,0.81-6.902,1.387
	c1.138-2.574,2.101-4.754,3.064-6.933c1.118-0.845,0.642-1.736,0.323-2.624c-0.074-0.657-0.142-1.314,0.583-1.913
	c1.214-0.554,0.344-1.27,0.606-1.898c0-0.846-0.001-1.689-0.001-2.532c-0.38-0.637,0.68-1.382-0.604-1.951
	c-0.746-0.601-0.635-1.262-0.556-1.919c0.276-0.884,0.748-1.773-0.325-2.615c-1.897-4.484-3.71-8.979-6.822-13.313
	c0.429-0.305-0.065-0.979,1.417-0.864c4.241,2.594,5.253,5.842,7.088,8.887c1.9,3.155,3.1,6.418,3.655,9.719
	c-0.58,0.734-0.168,1.501-0.293,2.25c0.102,0.531-0.21,1.075,0.23,1.679c0.056,0.211,0.962-0.034,0.369-0.017
	c-0.283,0.009-0.496-0.124-0.529-0.25C42.583,79.504,42.672,79.242,43.198,79.064z"/>
<path fill-rule="evenodd" clip-rule="evenodd" fill="#1F0D81" d="M81.449,88.018c3.223-0.691,6.718-0.497,10.074-0.753
	c6.851,0.216,13.702,0.215,20.552,0.001c12.32,0.536,24.433,1.542,35.96,3.87c0.976,0.477,2.037,0.823,3.498,0.563
	c1.813,0.318,3.828,0.437,5.143,1.253c-0.346,0.628-0.308,1.281-0.15,1.902c0.363,1.43-1.383,1.218-3.129,1.067
	c-9.458-2.527-19.57-4.198-29.905-5.58c-11.96-1.65-24.19-1.788-36.472-1.532C84.896,88.853,82.844,89.085,81.449,88.018z"/>
<path fill-rule="evenodd" clip-rule="evenodd" fill="#00448B" d="M60.394,39.877c-0.302,0.468-0.175,1.02-1.092,1.369
	c-0.904,1.082-2.702,1.423-4.893,1.437c-9.479,0.062-18.959,0.044-28.439,0.009c-1.521-0.006-2.923-0.208-4.158-0.659
	c-1.012-0.414-2.024-0.827-3.822-1.561c4.481-0.639,8-1.142,11.518-1.643c8.189,0.239,16.372-0.129,24.557-0.051
	C56.366,38.801,58.979,38.544,60.394,39.877z"/>
<path fill-rule="evenodd" clip-rule="evenodd" fill="#17096A" d="M153.376,40.61c-4.878,0.22-9.858-0.061-14.643,0.561
	c-5.778,0.75-7.187-2.004-10.668-3.087c1.082-0.624,2.597-0.7,4.073-0.695c9.195,0.03,18.401-0.272,27.584,0.202
	c3.987,0.867,7.976,1.734,11.963,2.601c-4.305,0.612-8.707,0.134-13.054,0.287C156.883,40.54,155.107,40.358,153.376,40.61z"/>
<path fill-rule="evenodd" clip-rule="evenodd" fill="#014F9A" d="M68.375,30.945c0.538,1.031,1.186,2.051,1.589,3.095
	c0.769,1.99-3.195,1.583-4.945,2.303c-5.404,1.087-11.028,0.624-16.573,0.509c-1.76-0.037-3.84-0.361-1.913-1.631
	c6.479-1.885,12.958-3.769,19.438-5.653C68.615,29.245,66.968,30.744,68.375,30.945z"/>
<path fill-rule="evenodd" clip-rule="evenodd" fill="#014992" d="M46.534,35.221c-0.72,1.239,1.028,1.06,2.491,1.064
	c5.331,0.016,10.662,0.038,15.994,0.059c-1.542,1.178-3.083,2.356-4.625,3.534c-1.609-0.44-3.342-0.54-5.154-0.502
	c-7.32,0.152-14.672-0.224-21.969,0.353c-1.598,0.127-2.856-0.245-3.764-0.899C35.184,37.626,40.858,36.423,46.534,35.221z"/>
<path fill-rule="evenodd" clip-rule="evenodd" fill="#1B0C80" d="M127.433,26.452c2.1,0.882,4.2,1.764,6.3,2.646
	c-0.114,1.258-2.073,0.688-3.259,0.748c-3.179,0.159-6.375-0.285-9.565,0.008c-7.656-0.032-15.313-0.071-22.955,0.231
	c-0.024-1.176-0.049-2.353-0.074-3.529C107.722,25.87,117.571,25.79,127.433,26.452z"/>
<path fill-rule="evenodd" clip-rule="evenodd" fill="#17096A" d="M159.723,37.59c-1.898,0.591-4.022,0.458-6.103,0.461
	c-8.519,0.012-17.036,0.021-25.555,0.032c-1.902-1.088-0.276-2.39-0.891-3.557c7.235-0.512,14.475-0.248,21.715-0.027
	C152.501,35.53,156.111,36.56,159.723,37.59z"/>
<path fill-rule="evenodd" clip-rule="evenodd" fill="#1B0C80" d="M116.388,21.264c2.456,1.17,4.912,2.341,7.367,3.512
	c-2.199,0.798-4.806,0.576-7.246,0.633c-4.701,0.108-9.416,0.054-14.125,0.025c-1.624-0.01-3.257-0.049-4.539-0.656
	c0.005-1.182,0.011-2.365,0.017-3.547C101.949,19.739,112.06,19.758,116.388,21.264z"/>
<path fill-rule="evenodd" clip-rule="evenodd" fill="#1B0C80" d="M116.388,21.264c-6.169-0.794-12.347-0.617-18.525-0.033
	c-0.443-3.101,0.319-6.142,1.827-9.536C104.924,15.294,111.042,18.108,116.388,21.264z"/>
<path fill-rule="evenodd" clip-rule="evenodd" fill="#003778" d="M59.055,47.337c0.049,0.297,0.097,0.593,0.145,0.89
	c-1.021,1.072-3.071,0.964-4.957,1.063c-7.376,0.385-14.744-0.084-22.116-0.039c-1.484-0.808-2.632-1.721-3.503-2.72
	c-0.099-1.007,1.556-0.998,2.766-1.018c8.333-0.141,16.672-0.391,25.002,0.052C58.092,45.856,58.576,46.595,59.055,47.337z"/>
<path fill-rule="evenodd" clip-rule="evenodd" fill="#B0CA17" d="M138.285,56.635c2.138-0.055,3.896,0.326,4.752,1.303
	c0.965,1.099-0.484,1.805-2.128,2.39c-1.027,0.366-2.718,0.554-0.924,1.389c1.334,0.62,2.398,0.858,3.216-0.228
	c0.198-0.266,0.732-0.555,1.362-0.308c0.386,0.15,0.787,0.536,0.651,0.724c-0.702,0.975-0.869,1.939-0.447,2.954
	c0.065,0.154-0.631,0.747-1.051,0.419c-2.148-1.678-4.469-0.077-6.662-0.13c-2.667-0.064-5.146-0.16-6.504-1.455
	c-1.24-1.182,0.379-1.952,2.029-2.604c1.049-0.415,0.8-0.785,0.599-1.334C132.442,57.749,134.36,56.63,138.285,56.635z"/>
<path fill-rule="evenodd" clip-rule="evenodd" fill="#003D80" d="M57.397,46.018c-8.829,0.002-17.658,0.005-26.487,0.006
	c-0.921,0-1.768,0.072-2.287,0.507c-1.599-0.778-2.808-1.692-3.817-2.675c1.199-0.697,2.88-0.731,4.511-0.743
	c7.899-0.053,15.802-0.099,23.698,0.015C57.623,43.194,58.143,43.625,57.397,46.018z"/>
<path fill-rule="evenodd" clip-rule="evenodd" fill="#014087" d="M57.397,46.018c0.52-1.7-0.772-2.308-4.406-2.254
	c-9.388,0.139-18.789,0.075-28.185,0.092c-1.344-0.469-2.208-1.13-2.995-1.822c10.357,0,20.714-0.001,31.071,0.003
	c2.278,0.001,4.618,0.145,6.419-0.791c-0.549,2.026-1.102,4.051-0.247,6.091C58.502,46.897,57.95,46.458,57.397,46.018z"/>
<path fill-rule="evenodd" clip-rule="evenodd" fill="#02316D" d="M60.214,50.462c-3.596,1.854-8.607,2.443-13.038,3.552
	c-3.428,0.323-6.859,1.185-10.279-0.016c-1.169-1.186-2.337-2.372-3.506-3.559c0.611-0.354,1.438-0.554,2.327-0.578
	c7.395-0.198,14.793-0.2,22.188,0.007C58.795,49.894,59.617,50.102,60.214,50.462z"/>
<path fill-rule="evenodd" clip-rule="evenodd" fill="#AFC913" d="M115.795,39.87c-1.485,0.16-2.97,0.32-4.454,0.479
	c-0.17-0.053-0.34-0.107-0.514-0.159c-1.386-1.215-3.195-2.244-5.527-3.042c-0.785-0.333-1.663-0.645-1.256-1.264
	c0.84-0.32,1.681-0.64,2.521-0.959c5.567-0.393,10.465,0.598,15.261,1.799C121.965,38.776,121.002,40.313,115.795,39.87z"/>
<path fill-rule="evenodd" clip-rule="evenodd" fill="#1B0C80" d="M97.845,24.778c8.636,0,17.273-0.001,25.91-0.002
	c1.521,0.401,2.685,0.993,3.678,1.675c-9.848,0.251-19.698,0.317-29.553,0.105C97.868,25.964,97.857,25.371,97.845,24.778z"/>
<path fill-rule="evenodd" clip-rule="evenodd" fill="#EA673E" d="M94.013,35.771c3.128-0.772,6.008-0.085,8.926,0.372
	c0.395,0.128,0.585,0.308,0.573,0.54c-3.271,2.262-5.046,4.652-2.565,7.401c0.357,0.66-0.026,1.261-0.604,1.848
	c-0.595,0.543-1.163,1.099-2.164,1.5c-0.355,0.107-0.742,0.171-1.155,0.194c-0.411-0.013-0.793-0.072-1.14-0.183
	c-0.22-0.167-0.331-0.354-0.337-0.553c0.102-0.471,0.296-0.938,0.274-1.417c-0.019-0.281-0.017-0.562-0.017-0.842
	c0.013-0.559-0.104-1.108-0.473-1.641c-0.278-0.455-0.553-0.909-0.947-1.344c-0.343-0.365-0.689-0.728-0.946-1.111
	c-0.194-0.305-0.299-0.616-0.35-0.934C92.997,38.302,92.855,36.998,94.013,35.771z"/>
<path fill-rule="evenodd" clip-rule="evenodd" fill="#003372" d="M60.214,50.462c-8.941-0.008-17.882-0.016-26.823-0.022
	c-0.557-0.361-1.323-0.668-1.265-1.189c1.142-0.833,2.904-0.551,4.454-0.57c5.974-0.073,11.942,0.332,17.927,0.011
	c1.612-0.086,3.239-0.029,4.692-0.465C59.819,48.941,61.463,49.542,60.214,50.462z"/>
<path fill-rule="evenodd" clip-rule="evenodd" fill="#1B0C80" d="M121.085,29.655c4.06-1.05,8.497-0.01,12.647-0.557
	c2.705,1.01,5.41,2.02,8.116,3.03c0.022,0.073,0.12,0.175,0.058,0.213c-2.919,1.824-12.987,1.51-15.253-0.471
	c-0.009-1.959-3.542-1.383-5.572-1.887c-0.291-0.074-0.388-0.147-0.289-0.22C120.888,29.691,120.985,29.655,121.085,29.655z"/>
<path fill-rule="evenodd" clip-rule="evenodd" fill="#1B0C80" d="M126.653,31.87c2.741,1.119,11.457,1.267,15.195,0.257
	c2.347,0.791,4.693,1.582,7.041,2.373c-7.234,0.8-14.474,0.669-21.715,0.027C125.921,33.693,126.457,32.773,126.653,31.87z"/>
<path fill-rule="evenodd" clip-rule="evenodd" fill="#1B0C80" d="M121.085,29.655c-0.002,0.109-0.004,0.218-0.004,0.328
	c-5.737-0.361-10.805,0.541-15.54,2.031c-1.821,0.572-3.362,1.633-5.899,1.011c-2.612-0.641-1.327-1.927-1.688-2.939
	c4.657-1.594,9.913-0.885,14.856-0.734C115.54,29.435,118.32,29.579,121.085,29.655z"/>
<path fill-rule="evenodd" clip-rule="evenodd" fill="#068238" d="M70.042,62.549c0.11,0.762,0.828,1.683-0.462,2.204
	c-0.792,0.321-2.526,0.213-3.048-0.61c0.647-1.359,0.196-2.738,0.277-4.107c0.046-0.788,0.089-1.488,2.264-1.399
	c2.11,0.104,4.283-0.242,6.342,0.219c1.944,0.211,2.591,0.821,2.158,1.741c-1.028,2.18-1.036,2.179,0.449,4.2
	c-4.273,0.538-4.371-1.534-6.302-2.396C70.99,61.987,70.477,62.161,70.042,62.549z"/>
<path fill-rule="evenodd" clip-rule="evenodd" fill="#058137" d="M109.43,73.011c-0.103,0.146-0.204,0.291-0.307,0.436
	c-2.393,0.364-1.838-0.546-1.918-1.117c-0.212-1.536,0.328-3.086-0.305-4.616c1.601-1.007,2.612-0.368,3.72,0.293
	c3.434,2.048,3.461,2.044,6.549,0.008c1.076-0.708,2.147-1.28,3.751-0.297c0.166,1.428,0.225,2.857,0.119,4.286
	c-0.05,0.683,0.224,1.514-1.935,1.6l-0.027-0.033c-0.656-0.887,0.38-1.883-0.732-2.739c-0.283,0.019-0.74-0.01-0.823,0.064
	c-2.4,2.146-4.768,2.028-7.187,0.008c-0.086-0.071-0.552-0.031-0.841-0.044C108.456,71.568,108.863,72.289,109.43,73.011z"/>
<path fill-rule="evenodd" clip-rule="evenodd" fill="#038C35" d="M65.569,47.346c5.745,0.297,10.813,1.624,16.125,2.578
	c0.985-0.241,1.634-0.106,1.932,0.42c-1.634,0.896-2.039,2.3-4.708,2.768c-1.813-0.343-3.626-0.686-5.439-1.027
	c-2.951-1.319-6.684-2.291-7.976-4.351C65.461,47.602,65.484,47.472,65.569,47.346z"/>
<path fill-rule="evenodd" clip-rule="evenodd" fill="#1F0D81" d="M81.449,88.018c4.043,0.744,8.261,0.502,12.405,0.459
	c10-0.105,19.866,0.391,29.644,1.387c0.112,0.012,0.299,0.087,0.285,0.11c-0.068,0.126-0.189,0.245-0.292,0.367
	c-4.805-0.316-9.604-0.649-14.414-0.946c-14.572-0.899-28.994-0.087-43.392,0.962c-0.938,0.169-1.176-0.046-1.045-0.464
	C70.168,89.104,75.594,88.093,81.449,88.018z"/>
<path fill-rule="evenodd" clip-rule="evenodd" fill="#098238" d="M88.844,73.084c-4.618,1.191-9.125,0.756-11.091-1.072
	c-1.918-1.782-0.6-3.326,3.938-4.614c1.475,0.083,2.958,0.252,4.39-0.105c2.233-0.093,3.076,0.533,3.34,1.696
	c-2.927-0.357-5.832-0.82-8.13,0.489c-0.959,0.553-1.92,1.106-0.148,1.717c2.301,1.446,4.318,1.583,5.897-0.311
	C89.934,71.16,89.411,72.118,88.844,73.084z"/>
<path fill-rule="evenodd" clip-rule="evenodd" fill="#048137" d="M95.756,72.542c3.154,0.753,3.69-0.299,4.053-1.442
	c0.352-1.108-0.669-2.284,0.663-3.347c0.944,1.046,0.049,2.155,0.447,3.04c0.208-0.92-0.465-2.049,0.45-3.125
	c0.592,0.034,1.183,0.068,1.775,0.103c1.085,1.261-0.12,2.622,0.699,3.895c-0.097,1.123-1.105,1.884-3.452,2.111
	c-1.761-0.177-3.523-0.178-5.286,0.001c-1.752-0.254-2.997-0.758-3.397-1.678c0.495-1.157,0.125-2.329,0.233-3.493
	c0.087-0.926,0.523-1.501,2.533-0.69C95.043,69.447,93.717,71.108,95.756,72.542z"/>
<path fill-rule="evenodd" clip-rule="evenodd" fill="#0B833A" d="M140.002,68.741c-0.553,0.744-0.396,1.483,1.477,1.421
	c3.058-0.103,4.542,0.544,4.735,1.954c0.224,1.63-2.638,1.489-4.596,1.746c-1.086,0.143-2.333-0.012-3.508-0.032
	c-0.835-0.787,0.119-0.936,1.429-1.041c1.002-0.081,2.306,0.321,2.962-0.396c0.179-0.692-0.265-1.025-1.833-1.171
	c-2.557-0.234-5.805-0.339-5.176-2.283c0.426-1.316,4.298-1.88,8.059-1.294C143.698,69.058,140.438,67.787,140.002,68.741z"/>
<path fill-rule="evenodd" clip-rule="evenodd" fill="#039233" d="M78.917,53.111c1.872-0.802,1.311-2.626,4.768-2.762
	c0.419-0.05,0.825-0.033,1.218,0.057c2.113,1.001,5.379,1.208,7.083,2.497c0.14,0.75-0.284,1.359-1.745,1.71
	c-1.194,0.023-2.394,0.09-3.556-0.118C83.795,54.443,81.241,53.936,78.917,53.111z"/>
<path fill-rule="evenodd" clip-rule="evenodd" fill="#018036" d="M91.519,63.773c-3.114,1.618-6.087,1.657-10.011,0.129
	c-0.688-1.365-0.205-2.752-0.307-4.128c-0.056-0.76,0.313-1.357,2.305-0.959L83.466,58.8c1.048,1.305-0.317,2.726,0.788,4.027
	c1.062,1.104,2.856,0.384,4.345,0.425c1.256-1.293,0.642-2.624,0.336-3.949c0.129-0.81,1.541-0.68,2.547-0.847
	C93.113,60.226,92.507,62,91.519,63.773z"/>
<path fill-rule="evenodd" clip-rule="evenodd" fill="#048136" d="M74.269,70.785c-0.795,0.809-2.296,0.404-3.477,0.453
	c-2.186,0.09-1.467,0.577-0.763,1.104c1.198,1.06,4.378-0.188,5.362,1.12c-5.231,0.968-8.102,0.439-9.775-1.8
	c0.511-0.873,0.501-1.746,0.005-2.62c-0.185-0.54,0.064-1.003,0.982-1.347c3.048-0.042,6.32-1.012,8.988,0.527l-0.042-0.002
	c-1.798,0.373-3.842-0.173-5.596,0.366c-0.273,0.389-0.546,0.777-0.82,1.166C70.343,70.708,73.329,69.506,74.269,70.785z"/>
<path fill-rule="evenodd" clip-rule="evenodd" fill="#007C29" d="M62.521,61.93c-2,0.667-5.817,0.286-5.168,2.529
	c0.155,0.535-2.458,0.603-3.389-0.317c0.492-1.613,0.504-3.227-0.005-4.84c1.616-0.776,7.958-1.184,9.045-0.562
	c0.208,0.12,0.325,0.402,0.183,0.524c-0.485,0.417-1.351,0.46-2.269,0.504c-1.569,0.075-4.591-0.453-2.604,1.336
	C59.537,61.604,61.789,60.823,62.521,61.93z"/>
<path fill-rule="evenodd" clip-rule="evenodd" fill="#058238" d="M127.421,68.702c-0.007,0.374-0.014,0.749-0.021,1.123
	c0.906,0.575,2.198,0.206,3.291,0.325c0.912,0.099,1.77,0.199,1.272,0.82c-0.835,0.462-1.942,0.241-2.93,0.263
	c-2.735,0.062-1.507,0.667-0.731,1.221c1.283,0.878,4.152-0.29,5.14,0.97c-3.316,0.936-6.28,0.725-8.881-0.665
	c-0.881-1.361,0.24-2.804-0.68-4.164c-0.242-0.687,0.269-1.123,1.708-1.253c2.278,0.614,5.377-0.609,7.306,0.793
	C131.253,68.751,128.977,67.88,127.421,68.702z"/>
<path fill-rule="evenodd" clip-rule="evenodd" fill="#007C2A" d="M54.017,67.706c2.543-0.451,3.556-0.228,3.832,0.967
	c0.184,0.796-0.115,1.62,0.101,2.413c0.274,1.01,0.664,2.12,3.708,1.674c0.58-0.085,1.154-0.265,1.237,0.163
	c0.061,0.313,0.267,0.895-0.667,0.886c-2.727-0.027-6.105,0.773-7.535-1.226C53.624,70.985,54.813,69.313,54.017,67.706z"/>
<path fill-rule="evenodd" clip-rule="evenodd" fill="#C4D109" d="M110.33,33.668c0.898-0.227,1.761-0.501,2.7-0.674
	c6.399-1.181,7.413-0.898,8.807,2.404C117.545,36.205,112.099,35.386,110.33,33.668z"/>
<path fill-rule="evenodd" clip-rule="evenodd" fill="#078135" d="M105.665,59.76c-0.914-0.038-1.938,0.159-2.66-0.299
	c-0.09-0.138-0.24-0.384-0.205-0.39c3.358-0.572,6.708-0.907,9.931,0.199c-4.401,0.715-2.876,2.536-3.048,4.025
	c-0.11,0.958,0.3,2.115-2.955,1.307C105.564,63.032,107.156,61.313,105.665,59.76z"/>
<path fill-rule="evenodd" clip-rule="evenodd" fill="#B6CC0C" d="M110.33,33.668c3.403,1.276,7.368,1.643,11.507,1.73
	c-0.004,0.442-0.008,0.884-0.011,1.326c-5.267-0.229-10.11-1.332-15.261-1.799C107.522,34.289,108.89,33.952,110.33,33.668z"/>
<path fill-rule="evenodd" clip-rule="evenodd" fill="#62952C" d="M103.163,53.958c-2.763,0.842-5.785,1.059-8.961,0.911
	c-0.322-0.158-0.601-0.332-0.843-0.522c-0.667-0.839-0.58-1.564,1.25-2.03c1.843-0.303,3.693-0.268,5.552-0.032
	C101.633,52.636,103.382,52.869,103.163,53.958z"/>
<path fill-rule="evenodd" clip-rule="evenodd" fill="#0A8339" d="M116.64,61.822c-3.481-1.31-3.287-2.022,0.9-3.308
	c2.109,0.31,4.332-0.073,6.439,0.254l0.002-0.016c0.354,0.84-1.188,0.655-1.963,0.885c-1.131,0.241-2.912-0.294-3.44,0.544
	c-0.31,0.492,1.212,0.513,1.72,0.843C119.699,61.983,117.869,61.566,116.64,61.822z"/>
<path fill-rule="evenodd" clip-rule="evenodd" fill="#F9B601" d="M82.49,39.375c1.496-0.849,2.992-1.697,4.489-2.546
	c0.644-0.012,1.288-0.023,1.933-0.035c1.953,0.406,3.508,0.932,2.71,2.175C88.777,40.197,85.737,40.359,82.49,39.375z"/>
<path fill-rule="evenodd" clip-rule="evenodd" fill="#9A7E0F" d="M103.033,36.678c-0.031-0.178-0.063-0.356-0.095-0.535
	c0.369-0.087,0.736-0.173,1.105-0.259c0.582,0.281,1.165,0.562,1.747,0.843c2.283,1.707,0.276,3.432,0.101,5.149
	c-0.432,0.616-1.089,1.112-2.581,1.143C101.102,40.929,102.025,38.804,103.033,36.678z"/>
<path fill-rule="evenodd" clip-rule="evenodd" fill="#17096A" d="M158.836,73.017c0.535,0.438,1.07,0.876,1.604,1.314
	c-0.629,2.35-1.259,4.699-1.89,7.049c-2.285-1.09-0.883-2.38-0.801-3.599C157.871,76.179,157.329,74.541,158.836,73.017z"/>
<path fill-rule="evenodd" clip-rule="evenodd" fill="#0A1154" d="M36.897,53.998c3.426,0.006,6.852,0.01,10.278,0.016
	c-1.362,0.354-2.797,0.655-4.074,1.074C38.617,56.557,38.638,56.572,36.897,53.998z"/>
<path fill-rule="evenodd" clip-rule="evenodd" fill="#E50C02" d="M91.552,38.443c-0.88-0.55-1.761-1.099-2.641-1.648
	c1.487-0.601,3.029-1.134,5.102-1.023c0.779,1.379-0.105,2.777,0.194,4.162c-0.374,0.056-0.726,0.032-1.059-0.068
	C92.179,39.511,91.956,38.952,91.552,38.443z"/>
<path fill-rule="evenodd" clip-rule="evenodd" fill="#007C2B" d="M119.104,73.603c1.914-0.996,0.756-2.232,1.071-3.354
	c0.238-0.845-0.574-1.764,0.744-2.531c1.371,1.807,0.495,3.681,0.572,5.521C121.529,74.102,120.265,74.037,119.104,73.603z"/>
<path fill-rule="evenodd" clip-rule="evenodd" fill="#088239" d="M122.823,61.188c2.354,0.816,3.862,1.714,1.175,3.01
	c-1.122,0.201-2.237,0.376-3.164-0.194c-0.156-0.237-0.063-0.449,0.278-0.634c1.806-1.325-1.787-0.753-1.984-1.374
	C119.83,61.136,121.523,61.382,122.823,61.188z"/>
<path fill-rule="evenodd" clip-rule="evenodd" fill="#F6EA08" d="M65.503,47.733c2.213,1.649,6.118,2.543,7.976,4.351
	C67.513,50.998,65.706,50.012,65.503,47.733z"/>
<path fill-rule="evenodd" clip-rule="evenodd" fill="#018036" d="M97.706,64.655c-0.285-0.061-0.569-0.121-0.854-0.183
	c-0.901-1.612-0.255-3.258-0.397-4.887c-0.063-0.727,0.668-1.063,2.192-0.825C98.958,60.75,100.293,62.779,97.706,64.655z"/>
<path fill-rule="evenodd" clip-rule="evenodd" fill="#7F7F29" d="M103.163,53.958c-0.9-0.429-1.801-0.857-2.701-1.286
	c0.6-1.226,2.054-0.854,3.52-0.458c1.281,0,2.563,0,3.885,0c0.06,1.107-2.123,1.104-2.976,1.693
	C104.314,53.924,103.739,53.941,103.163,53.958z"/>
<path fill-rule="evenodd" clip-rule="evenodd" fill="#17096A" d="M163.084,34.541c0.678-0.163,1.355-0.326,2.033-0.489
	c3.266,0.461,6.116,1.312,8.846,2.31C170.07,36.112,166.471,35.481,163.084,34.541z"/>
<path fill-rule="evenodd" clip-rule="evenodd" fill="#17096A" d="M153.376,40.61c6.039-0.825,12.222-0.115,18.31-0.418
	c0.577,0.042,1.154,0.085,1.731,0.127c-0.001,0.097-0.001,0.194-0.001,0.291C166.736,40.61,160.057,40.61,153.376,40.61z"/>
<path fill-rule="evenodd" clip-rule="evenodd" fill="#1F0D81" d="M112.075,87.266c-6.851,0.569-13.702,0.572-20.552-0.001
	C98.374,87.002,105.225,87.03,112.075,87.266z"/>
<path fill-rule="evenodd" clip-rule="evenodd" fill="#007C2B" d="M91.519,63.773c-0.012-1.772-0.024-3.545-0.038-5.317
	C94.01,60.225,93.396,61.998,91.519,63.773z"/>
<path fill-rule="evenodd" clip-rule="evenodd" fill="#007820" d="M121.064,63.789c0.792,0.46,1.909,0.354,2.934,0.408
	c-0.361,0.447-1.135,0.447-1.924,0.434c-1.585,0.299-3.178,0.256-4.774,0.025c-1.435-0.022-2.574-0.307-2.438-1.08
	c0.077-0.437,1.061-0.286,1.726-0.228C117.965,63.781,119.773,63.142,121.064,63.789z"/>
<path fill-rule="evenodd" clip-rule="evenodd" fill="#007A24" d="M97.706,64.655c1.837-1.876,0.576-3.876,0.95-5.811
	c-0.314-0.082-0.42-0.165-0.316-0.248c0.103-0.083,0.207-0.124,0.312-0.124c2.127,2.014,1.134,4.113,0.605,6.188
	C99.191,64.915,98.241,64.81,97.706,64.655z"/>
<path fill-rule="evenodd" clip-rule="evenodd" fill="#00054D" d="M32.137,57.52c-0.473,0.289-0.945,0.576-1.417,0.864
	c-0.619-0.652-1.42-1.28-1.796-1.965c-0.262-0.479-1.197-1.272,0.437-1.49c1.57-0.21,1.411,0.75,1.968,1.179
	C31.84,56.501,31.886,57.043,32.137,57.52z"/>
<path fill-rule="evenodd" clip-rule="evenodd" fill="#057920" d="M98.651,58.473c0,0.124,0.002,0.248,0.004,0.372
	c-1.876,0.111-1.794,0.801-1.793,1.472c0.001,1.386-0.006,2.771-0.011,4.156c-1.989-1.838-0.635-3.798-0.722-5.695
	C96.098,58.1,97.71,58.436,98.651,58.473z"/>
<path fill-rule="evenodd" clip-rule="evenodd" fill="#077F30" d="M106.9,67.713c1.475,1.27,0.39,2.652,0.722,3.974
	c0.166,0.657-0.566,1.498,1.501,1.76c-1.465,0.76-2.694,0.707-2.675-0.41C106.479,71.263,105.806,69.465,106.9,67.713z"/>
<path fill-rule="evenodd" clip-rule="evenodd" fill="#00761B" d="M69.054,58.846c-2.188,0.15-1.638,0.995-1.802,1.685
	c-0.286,1.202,0.774,2.471-0.721,3.612c-0.073-1.574-0.072-3.149-0.242-4.721c-0.122-1.125,1.193-1.104,2.769-0.977
	c0.294,0.089,0.392,0.178,0.293,0.268C69.252,58.801,69.154,58.846,69.054,58.846z"/>
<path fill-rule="evenodd" clip-rule="evenodd" fill="#06781D" d="M94.343,68.124c-1.815-0.637-1.804,0.056-1.958,0.649
	c-0.286,1.106,0.662,2.273-0.676,3.326c-0.078-1.295-0.184-2.59-0.218-3.886c-0.01-0.394-0.291-0.91,1.088-0.957
	c1.32-0.044,2.354,0.064,2.288,0.882C94.691,68.134,94.517,68.129,94.343,68.124z"/>
<path fill-rule="evenodd" clip-rule="evenodd" fill="#007923" d="M83.506,58.815c-2.366,0.187-1.834,1.102-1.883,1.854
	c-0.071,1.077-0.08,2.155-0.115,3.233c-1.942-1.522-0.805-3.204-0.811-4.798C80.694,58.135,82.185,58.056,83.506,58.815z"/>
<path fill-rule="evenodd" clip-rule="evenodd" fill="#203364" d="M157.75,77.781c0.783,1.172-0.698,2.466,0.801,3.599
	c0.079,0.497,0,0.961-1.551,1.603C157.046,80.995,156.752,79.381,157.75,77.781z"/>
<path fill-rule="evenodd" clip-rule="evenodd" fill="#00761A" d="M112.73,59.271c-3.288-0.506-6.569-0.942-9.726,0.19
	c-0.732-0.318-1.236-0.924-0.128-0.969c3.229-0.131,6.504-0.052,9.752,0.031C113.172,58.537,112.963,59.003,112.73,59.271z"/>
<path fill-rule="evenodd" clip-rule="evenodd" fill="#1F0D81" d="M153.396,95.921c4.437-0.092,1.584-2.142,3.279-2.97
	c0.199,1.227,0.398,2.452,0.615,3.788C155.501,96.827,154.489,96.323,153.396,95.921z"/>
<path fill-rule="evenodd" clip-rule="evenodd" fill="#0F8030" d="M142.501,72.393c-0.551,1.158-4.182,0.025-4.391,1.438
	c-1.646-0.192-2.252-0.766-2.364-1.686C138.03,72.396,140.246,72.705,142.501,72.393z"/>
<path fill-rule="evenodd" clip-rule="evenodd" fill="#0C1758" d="M26.1,51.234c1.488,0.733,2.376,1.595,2.562,2.851
	c-2.663-0.4-2.693-1.502-3.48-2.322C25.441,51.567,25.523,51.296,26.1,51.234z"/>
<path fill-rule="evenodd" clip-rule="evenodd" fill="#087A21" d="M75.592,68.224c-2.783-1.06-6.007-0.29-8.988-0.527
	c2.782-0.929,5.875-0.346,8.812-0.375C76.661,67.31,76.263,67.874,75.592,68.224z"/>
<path fill-rule="evenodd" clip-rule="evenodd" fill="#00771C" d="M105.665,59.76c2.098,1.521,0.768,3.226,1.063,4.843
	C104.624,63.082,106.431,61.352,105.665,59.76z"/>
<path fill-rule="evenodd" clip-rule="evenodd" fill="#087B25" d="M140.002,68.741c0.475-0.923,2.882-0.325,3.549-1.097
	c1.362,0.001,3.071,0.051,2.67,0.934c-0.438,0.967-1.785-0.031-2.749,0.057C142.341,68.738,141.161,68.712,140.002,68.741z"/>
<path fill-rule="evenodd" clip-rule="evenodd" fill="#00761A" d="M53.958,59.302c1.189,1.613,1.186,3.227,0.005,4.84
	C53.962,62.528,53.96,60.915,53.958,59.302z"/>
<path fill-rule="evenodd" clip-rule="evenodd" fill="#0E843D" d="M54.017,67.706c1.522,1.582,0.399,3.253,0.674,4.877
	C53.134,71.002,54.107,69.336,54.017,67.706z"/>
<path fill-rule="evenodd" clip-rule="evenodd" fill="#087A21" d="M132.738,68.146c-2.026-1.041-5.063,0.107-7.149-0.804
	c2.161-0.029,4.331-0.13,6.481-0.069c2.382,0.066,1.951,0.635,0.662,1.248c-0.313-0.085-0.416-0.168-0.311-0.251
	C132.526,68.187,132.631,68.146,132.738,68.146z"/>
<path fill-rule="evenodd" clip-rule="evenodd" fill="#1B0C80" d="M132.897,22.982c-2.356-0.645-4.186-1.549-5.494-2.711
	C130.143,20.727,131.979,21.628,132.897,22.982z"/>
<path fill-rule="evenodd" clip-rule="evenodd" fill="#007D2C" d="M94.343,68.124c0.174,0.004,0.349,0.009,0.523,0.015
	c1.129,1.427,0.104,2.96,0.891,4.403C92.776,71.265,94.604,69.613,94.343,68.124z"/>
<path fill-rule="evenodd" clip-rule="evenodd" fill="#047E2E" d="M101.369,67.668c0,1.15,0,2.302,0,3.452
	c-0.3,0.007-0.599,0.015-0.897,0.021c0-1.129,0-2.259,0-3.388c0.111-0.126,0.224-0.252,0.336-0.378
	C100.994,67.473,101.182,67.57,101.369,67.668z"/>
<path fill-rule="evenodd" clip-rule="evenodd" fill="#007923" d="M123.881,68.595c1.545,1.336,0.506,2.774,0.68,4.164
	C122.858,71.43,123.697,69.999,123.881,68.595z"/>
<path fill-rule="evenodd" clip-rule="evenodd" fill="#1F0D81" d="M43.803,86.269c-1.186-1.315-1.181-2.63-0.005-3.945
	C43.799,83.638,43.801,84.953,43.803,86.269z"/>
<path fill-rule="evenodd" clip-rule="evenodd" fill="#00771C" d="M84.254,62.827c-1.681-1.274-0.52-2.686-0.788-4.027
	C85.315,60.066,84.031,61.483,84.254,62.827z"/>
<path fill-rule="evenodd" clip-rule="evenodd" fill="#007D2C" d="M103.844,71.665c-1.435-1.245-0.384-2.6-0.699-3.895
	C104.897,69.003,103.809,70.358,103.844,71.665z"/>
<path fill-rule="evenodd" clip-rule="evenodd" fill="#007B28" d="M75.391,73.463c-1.467-0.747-4.255,0.046-5.362-1.12
	c1.547,0.048,3.098,0.076,4.641,0.149C76.187,72.563,76.881,72.827,75.391,73.463z"/>
<path fill-rule="evenodd" clip-rule="evenodd" fill="#007922" d="M133.441,73.424c-1.4-0.727-3.957,0.038-5.14-0.97
	c1.562-0.002,3.141-0.074,4.683,0.014C134.468,72.553,134.529,72.959,133.441,73.424z"/>
<path fill-rule="evenodd" clip-rule="evenodd" fill="#007921" d="M88.935,59.303c1.031,1.34,1.576,2.67-0.336,3.949
	C88.711,61.936,88.823,60.619,88.935,59.303z"/>
<path fill-rule="evenodd" clip-rule="evenodd" fill="#1F0D81" d="M64.64,89.893c0.348,0.154,0.697,0.31,1.045,0.464
	c-2.024,0.285-4.048,0.571-7.14,1.008C60.962,90.304,62.812,90.111,64.64,89.893z"/>
<path fill-rule="evenodd" clip-rule="evenodd" fill="#007923" d="M122.823,61.188c-1.232,0.269-2.464,0.538-3.695,0.808
	c-0.829-0.058-1.658-0.115-2.488-0.173c1.22-0.266,2.438-0.532,3.658-0.798C121.14,61.079,121.981,61.133,122.823,61.188z"/>
<path fill-rule="evenodd" clip-rule="evenodd" fill="#24961B" d="M94.155,54.431c0.017,0.146,0.032,0.292,0.047,0.438
	c-2.554,0.109-5.117,0.265-7.518-0.374c1.314-0.027,2.627-0.056,3.941-0.083C91.813,53.95,92.988,53.955,94.155,54.431z"/>
<path fill-rule="evenodd" clip-rule="evenodd" fill="#007A25" d="M118.345,70.83c2.124,0.79,0.428,1.829,0.732,2.738
	C117.424,72.748,118.358,71.758,118.345,70.83z"/>
<path fill-rule="evenodd" clip-rule="evenodd" fill="#00761A" d="M88.844,73.084c0.098-0.872-0.089-1.688-1.803-2.2
	C90.061,70.837,90.377,71.224,88.844,73.084z"/>
<path fill-rule="evenodd" clip-rule="evenodd" fill="#020B4E" d="M26.1,51.234c-0.306,0.176-0.612,0.353-0.918,0.528
	c-0.595-0.571-1.19-1.143-1.946-1.868C25.527,49.994,25.673,50.673,26.1,51.234z"/>
<path fill-rule="evenodd" clip-rule="evenodd" fill="#00004C" d="M9.693,35.346c-1.3,0.664-2.183,0.688-5.169,0.135
	C6.247,35.437,7.97,35.392,9.693,35.346z"/>
<path fill-rule="evenodd" clip-rule="evenodd" fill="#00004C" d="M39.448,77.88c0,1.029,0.001,2.06,0.002,3.089
	c-0.288,0.204-0.58,0.206-0.875,0.004c0-1.032,0.001-2.064,0.001-3.097C38.871,77.67,39.161,77.682,39.448,77.88z"/>
<path fill-rule="evenodd" clip-rule="evenodd" fill="#007A24" d="M69.054,58.846c0.002-0.134,0.003-0.268,0.003-0.4
	c2.183-0.107,4.445-0.512,6.356,0.409C73.294,58.852,71.174,58.849,69.054,58.846z"/>
<path fill-rule="evenodd" clip-rule="evenodd" fill="#00781F" d="M123.979,58.769c-2.16-0.003-4.385,0.393-6.439-0.254
	C119.739,58.271,121.936,58.05,123.979,58.769z"/>
<path fill-rule="evenodd" clip-rule="evenodd" fill="#00771C" d="M74.269,70.785c-1.37-0.759-4.033,0.053-5.135-1.031
	c1.457,0.045,2.919,0.068,4.37,0.143C74.738,69.959,74.854,70.313,74.269,70.785z"/>
<path fill-rule="evenodd" clip-rule="evenodd" fill="#007619" d="M131.963,70.971c-0.811-1.07-3.661-0.164-4.563-1.146
	c1.317,0.02,2.64,0.013,3.951,0.063C133.447,69.971,133.009,70.438,131.963,70.971z"/>
<path fill-rule="evenodd" clip-rule="evenodd" fill="#004297" d="M68.375,30.945c-0.801-0.459-1.602-0.918-2.403-1.377
	c0.515-0.219,1.382-0.664,1.492-0.623C68.841,29.467,68.21,30.255,68.375,30.945z"/>
<path fill-rule="evenodd" clip-rule="evenodd" fill="#00761B" d="M62.521,61.93c-1.402-0.275-2.805-0.55-4.207-0.825
	C59.642,61.474,62.396,60.07,62.521,61.93z"/>
<path fill-rule="evenodd" clip-rule="evenodd" fill="#000D51" d="M39.448,77.88c-0.291-0.003-0.582-0.004-0.872-0.004
	c-0.051-0.548-0.103-1.097-0.154-1.645c0.095-0.136,0.124-0.299,0.298-0.401c0.344-0.201,0.694-0.182,0.71,0.113
	C39.466,76.588,39.446,77.234,39.448,77.88z"/>
<path fill-rule="evenodd" clip-rule="evenodd" fill="#00771D" d="M95.106,73.777c1.762-0.502,3.523-0.503,5.286-0.001
	C98.63,73.977,96.868,74.01,95.106,73.777z"/>
<path fill-rule="evenodd" clip-rule="evenodd" fill="#00034D" d="M37.542,71.697c1.649,0.825,1.304,1.71,0.325,2.615
	C37.758,73.44,37.65,72.569,37.542,71.697z"/>
<path fill-rule="evenodd" clip-rule="evenodd" fill="#000E52" d="M38.575,80.973c0.292,0.001,0.583-0.001,0.875-0.004
	c-0.003,0.646,0.019,1.294-0.02,1.939c-0.018,0.3-0.378,0.309-0.714,0.107c-0.173-0.104-0.201-0.267-0.294-0.402
	C38.473,82.066,38.524,81.52,38.575,80.973z"/>
<path fill-rule="evenodd" clip-rule="evenodd" fill="#007D2C" d="M109.43,73.011c-1.421-0.647-0.933-1.444-0.689-2.218
	c0.009-0.028,0.263-0.063,0.386-0.053c0.134,0.013,0.246,0.077,0.368,0.118C109.795,71.578,109.957,72.297,109.43,73.011z"/>
<path fill-rule="evenodd" clip-rule="evenodd" fill="#00771D" d="M65.622,69.043c1.156,0.874,1.17,1.747-0.005,2.62
	C65.618,70.789,65.62,69.916,65.622,69.043z"/>
<path fill-rule="evenodd" clip-rule="evenodd" fill="#1F0D81" d="M37.839,84.526c1.022,0.909,1.352,1.797-0.323,2.624
	C37.624,86.275,37.731,85.401,37.839,84.526z"/>
<path fill-rule="evenodd" clip-rule="evenodd" fill="#00771D" d="M132.738,68.146c-0.003,0.125-0.005,0.25-0.006,0.375
	c-1.77,0.061-3.541,0.121-5.312,0.182C128.834,67.682,130.962,68.321,132.738,68.146z"/>
<path fill-rule="evenodd" clip-rule="evenodd" fill="#00761A" d="M69.954,68.588c1.681-0.807,3.702-0.346,5.595-0.366
	C73.862,69.003,71.821,68.472,69.954,68.588z"/>
<path fill-rule="evenodd" clip-rule="evenodd" fill="#1F0D81" d="M41.354,92.696c0.267-0.81,0.534-1.62,0.802-2.43
	c0.293-0.196,0.588-0.208,0.887-0.003C42.846,91.136,44.211,92.272,41.354,92.696z"/>
<path fill-rule="evenodd" clip-rule="evenodd" fill="#1F0D81" d="M151.533,91.698c-1.66,0.563-2.802,0.338-3.498-0.563
	C149.411,91.006,150.376,91.499,151.533,91.698z"/>
<path fill-rule="evenodd" clip-rule="evenodd" fill="#00771C" d="M122.019,59.638c0.654-0.295,1.309-0.59,1.963-0.885
	c0.966,0.241,1.914,0.709,1.163,1.104C124.729,60.074,123.101,59.729,122.019,59.638z"/>
<path fill-rule="evenodd" clip-rule="evenodd" fill="#2D8E4B" d="M117.3,64.656c1.591-0.008,3.184-0.017,4.774-0.025
	C120.493,65.082,118.903,65.192,117.3,64.656z"/>
<path fill-rule="evenodd" clip-rule="evenodd" fill="#007922" d="M86.082,67.292c-1.404,0.625-2.88,0.539-4.39,0.105
	C83.132,67.133,84.598,67.115,86.082,67.292z"/>
<path fill-rule="evenodd" clip-rule="evenodd" fill="#001554" d="M43.198,79.064c-0.131,0.339-0.262,0.678-0.442,1.143
	c-1.02-0.676-0.417-1.31-0.598-1.892c0.3-0.193,0.596-0.202,0.887,0.005C43.096,78.568,43.146,78.816,43.198,79.064z"/>
<path fill-rule="evenodd" clip-rule="evenodd" fill="#2D8E4B" d="M121.064,63.789c-1.521-0.076-3.213,0.27-4.477-0.44
	c1.508,0.007,3.016,0.014,4.524,0.021C121.13,63.51,121.113,63.65,121.064,63.789z"/>
<path fill-rule="evenodd" clip-rule="evenodd" fill="#00004C" d="M43.044,78.32c-0.296,0-0.592-0.001-0.887-0.005
	c0.188-0.734-0.531-1.542,0.723-2.19C42.935,76.856,42.99,77.588,43.044,78.32z"/>
<path fill-rule="evenodd" clip-rule="evenodd" fill="#007820" d="M70.042,62.549c0.323-0.478,0.603-1.081,1.977-0.797
	c0.688,0.143,0.179,0.467-0.301,0.648C71.159,62.45,70.6,62.5,70.042,62.549z"/>
<path fill-rule="evenodd" clip-rule="evenodd" fill="#007B28" d="M81.144,71.194c-1.873-0.612-2.003-1.188,0.148-1.717
	C80.844,70.042,80.751,70.612,81.144,71.194z"/>
<path fill-rule="evenodd" clip-rule="evenodd" fill="#1F0D81" d="M157.424,86.16c-0.402-0.947-0.921-1.464,0.025-1.974
	C158.271,84.729,157.758,85.258,157.424,86.16z"/>
<path fill-rule="evenodd" clip-rule="evenodd" fill="#1F0D81" d="M43.043,90.264c-0.296-0.001-0.591,0-0.887,0.003
	c0-0.563,0-1.126,0-1.746c1.329,0.192,0.671,0.705,1.042,0.998C43.146,89.767,43.095,90.015,43.043,90.264z"/>
<path fill-rule="evenodd" clip-rule="evenodd" fill="#C40105" d="M112.929,46.026c-0.144,1.039-0.896,1.945-2.397,2.688
	c-2.698,0.75-5.448,1.447-8.404,1.921c-2.072,0.333-4.059,0.441-5.649-0.515c-0.731-0.646-0.798-1.318-0.308-2.009
	C101.953,47.811,107.069,46.194,112.929,46.026z"/>
<path fill-rule="evenodd" clip-rule="evenodd" fill="#E0380C" d="M111.341,40.349c2.979,1.568,3.22,3.362,1.798,5.295
	c-0.546-0.106-0.886-0.326-1.244-0.537c-0.674-0.375-1.681-0.401-2.536-0.585c-1.088-0.24-2.14-0.504-2.805-1.025
	c-0.191-0.556-0.229-1.12-0.277-1.686c1.034-0.982,2.442-1.677,4.909-1.557L111.341,40.349z"/>
<path fill-rule="evenodd" clip-rule="evenodd" fill="#CC0006" d="M112.936,44.703c0.067,0.313,0.135,0.626,0.203,0.94
	c-0.022,0.134-0.092,0.261-0.21,0.382c-3.802,0.975-7.951,1.487-11.942,2.21c-1.683,0.305-2.831,0.026-4.022-0.447
	c-0.268-0.091-0.357-0.184-0.271-0.276c0.086-0.093,0.174-0.14,0.264-0.14c0.242-0.016,0.483-0.03,0.727-0.042
	C102.358,45.877,107.224,44.693,112.936,44.703z"/>
<path fill-rule="evenodd" clip-rule="evenodd" fill="#B90806" d="M96.957,50.001c1.965,0.679,3.759,0.298,5.764-0.069
	c2.549-0.466,4.862-1.363,7.81-1.218c-1.403,1.465-4.168,2.222-6.663,3.118c-1.989,0.137-3.959,0.452-5.997,0.155
	C96.621,51.432,95.762,50.831,96.957,50.001z"/>
<path fill-rule="evenodd" clip-rule="evenodd" fill="#593427" d="M97.836,51.702c2.01,0.043,4.021,0.086,6.031,0.13
	c0.047,0.127,0.086,0.254,0.114,0.382c-1.244,0.018-2.604-0.176-3.52,0.458c-2.112,0.019-4.225,0.037-6.337,0.056
	c-0.921,0.236-1.842,0.32-2.759-0.005c-2.756-0.503-5.634-0.914-7.157-2.337c3.322-0.967,6.313,0.25,9.474,0.344
	c0.679,0.038,1.338,0.115,1.979,0.231C96.497,51.127,97.109,51.455,97.836,51.702z"/>
<path fill-rule="evenodd" clip-rule="evenodd" fill="#E33109" d="M94.169,51.265c-3.319-0.292-6.638-0.585-9.959-0.878
	c-0.001-0.001-0.257-0.042-0.257-0.042s-0.268,0.005-0.268,0.005c-0.435-0.402-1.297-0.318-1.992-0.426
	c-0.38-0.708-0.76-1.417-1.141-2.126c4.934-1.189,10.059-1.567,15.435-0.891c-0.005,0.143,0.003,0.285,0.029,0.426
	c0.733,0.719,0.419,1.426-0.105,2.128C94.923,49.965,94.903,50.699,94.169,51.265z"/>
<path fill-rule="evenodd" clip-rule="evenodd" fill="#E64D07" d="M95.988,46.906c-5.144,0.297-10.289,0.594-15.434,0.891
	c-0.917-0.333-0.716-0.833-0.795-1.292c-0.374-0.244-0.303-0.45,0.209-0.621c3.922-0.299,7.903-0.374,11.813-0.731
	c1.772-0.162,3.535-0.253,5.022,0.424C96.82,46.064,97.051,46.582,95.988,46.906z"/>
<path fill-rule="evenodd" clip-rule="evenodd" fill="#EB6C00" d="M79.877,46.044c-0.039,0.153-0.079,0.307-0.119,0.461
	c-1.249-0.673-0.759-1.477-0.698-2.249c3.473-1.014,7.468-0.646,11.192-0.999c1.864-0.177,3.813-0.223,5.717-0.351
	c1.26,0.478,0.8,1.159,0.864,1.778C91.41,45.83,85.528,45.586,79.877,46.044z"/>
<path fill-rule="evenodd" clip-rule="evenodd" fill="#F19100" d="M94.203,40.682c0.694,0.195,0.856,0.52,0.88,0.877
	c0.966,0.884-0.214,1.288-1.607,1.36c-4.787,0.25-9.511,1.1-14.412,0.444c0.29-0.583,0.58-1.165,0.871-1.748
	C84.579,40.889,89.334,40.576,94.203,40.682z"/>
<path fill-rule="evenodd" clip-rule="evenodd" fill="#ED7900" d="M79.064,43.364c4.359-0.296,8.713-0.616,13.083-0.874
	c1.364-0.08,2.755-0.001,2.937-0.931c1.022,0.332,0.884,0.851,0.887,1.346c-0.092,1.041-2.03,0.811-2.974,0.817
	c-4.677,0.031-9.23,0.797-13.937,0.533C79.062,43.959,79.063,43.661,79.064,43.364z"/>
<path fill-rule="evenodd" clip-rule="evenodd" fill="#F39A00" d="M94.203,40.682c-4.59,0.931-9.403,1.03-14.269,0.935
	c0.28-0.299,0.559-0.597,0.839-0.896c3.95-0.468,7.988-0.667,11.999-0.953c0.203,0.008,0.407,0.018,0.61,0.028
	c0.293,0.018,0.568,0.063,0.825,0.136C94.206,40.183,94.205,40.432,94.203,40.682z"/>
<path fill-rule="evenodd" clip-rule="evenodd" fill="#F6AA00" d="M91.552,38.443c1.082,0.295,1.678,0.75,1.83,1.353l-0.201,0.038
	c-3.854,0.305-7.625,1.169-11.635,0.417c0.066-0.357,0.238-0.687,0.944-0.876C85.576,39.219,89.018,39.906,91.552,38.443z"/>
<path fill-rule="evenodd" clip-rule="evenodd" fill="#F6A501" d="M81.546,40.251c3.945,0.309,7.729-0.474,11.636-0.417
	c-3.952,0.927-8.077,1.262-12.41,0.887C81.03,40.564,81.288,40.408,81.546,40.251z"/>
<path fill-rule="evenodd" clip-rule="evenodd" fill="#F5F7E6" d="M139.612,63.474c-2.144,0.522-4.112,0.991-5.827-0.058
	c-0.752-0.461-0.466-1.135,0.517-1.354C137.181,61.421,137.944,62.794,139.612,63.474z"/>
<path fill-rule="evenodd" clip-rule="evenodd" fill="#F8F9EF" d="M137.91,57.844c1.071,0.032,2.176,0.116,2.059,0.804
	c-0.112,0.661-1.179,0.952-2.38,1.078c-1.204,0.127-1.556-0.372-1.691-0.756C135.646,58.26,136.647,57.966,137.91,57.844z"/>
<path fill-rule="evenodd" clip-rule="evenodd" fill="#9FB220" d="M111.186,40.254c-1.52,0.546-3.039,1.092-4.559,1.638
	c-0.326,0.407-0.958,0.428-1.688,0.325c0.285-1.83,0.568-3.66,0.853-5.49C108.148,37.695,111.237,38.39,111.186,40.254z"/>
<path fill-rule="evenodd" clip-rule="evenodd" fill="#936827" d="M103.033,36.678c0.75,2.091-0.007,4.192,0.16,6.287
	c0.354,0.734-0.619,1.093-1.661,1.432c-0.405,0.058-0.783,0.032-1.129-0.091C97.083,41.612,97.975,39.023,103.033,36.678z"/>
<path fill-rule="evenodd" clip-rule="evenodd" fill="#D20007" d="M112.936,44.703c-5.084,0.876-10.167,1.752-15.251,2.628
	c0.545-0.453,1.09-0.905,1.634-1.357c2.964-1.168,6.294-1.816,10.137-1.738C110.648,44.33,112.08,43.996,112.936,44.703z"/>
<path fill-rule="evenodd" clip-rule="evenodd" fill="#E85B04" d="M79.877,46.044c5.414-1.179,11.352-0.763,16.957-1.359
	c-0.01,0.298-0.02,0.596-0.03,0.893c-4.09,0.207-8.212,0.32-12.254,0.665C82.842,46.388,81.383,46.442,79.877,46.044z"/>
<path fill-rule="evenodd" clip-rule="evenodd" fill="#D60008" d="M109.455,44.235c-3.206,0.823-6.674,1.276-10.135,1.738
	c0.361-0.556,0.723-1.112,1.084-1.668c0.308-0.028,0.615-0.056,0.924-0.084c1.904-0.16,3.219-1.215,5.454-0.876
	C107.673,43.642,108.564,43.939,109.455,44.235z"/>
<path fill-rule="evenodd" clip-rule="evenodd" fill="#E3552D" d="M95.072,49.557c0.834-0.688,0.968-1.448,0.944-2.224
	c0.313,0.013,0.627,0.027,0.941,0.04c-0.058,0.139-0.056,0.278,0.007,0.417c-0.001,0.737-0.005,1.475-0.007,2.212
	c0.292,0.567,0.585,1.135,0.878,1.701c-0.752,0.084-1.456,0.079-1.967-0.268C95.03,50.867,94.885,50.229,95.072,49.557z"/>
<path fill-rule="evenodd" clip-rule="evenodd" fill="#EBF2ED" d="M71.826,61.156c-0.979-0.015-1.69-0.151-1.686-0.739
	s0.728-0.721,1.694-0.731c1.001-0.011,1.761,0.177,1.753,0.723C73.58,60.946,72.821,61.139,71.826,61.156z"/>
<path fill-rule="evenodd" clip-rule="evenodd" fill="#1F0D81" d="M78.911,88.591c0.906,0,1.811,0,2.964,0
	C80.857,89.099,79.955,88.933,78.911,88.591z"/>
<path fill-rule="evenodd" clip-rule="evenodd" fill="#519430" d="M91.366,52.723c0.921,0.001,1.84,0.003,2.76,0.004
	c-0.869,0.572,0.086,1.136,0.029,1.704c-1.177-0.007-2.354-0.013-3.529-0.019C90.873,53.849,91.119,53.286,91.366,52.723z"/>
<path fill-rule="evenodd" clip-rule="evenodd" fill="#F2F2F5" d="M94.098,78.012c0.026-0.466,0.537-0.62,1.43-0.548
	c0.64,0.052,1.285,0.228,1.134,0.526c-0.208,0.414-0.817,0.795-1.875,0.709C94.056,78.639,94.1,78.3,94.098,78.012z"/>
<path fill-rule="evenodd" clip-rule="evenodd" fill="#E0060A" d="M106.782,43.345c-1.745,0.402-3.076,1.432-5.454,0.876
	c0.621-0.419,1.242-0.838,1.864-1.256c0.583-0.25,1.166-0.5,1.747-0.749c0.563-0.107,1.126-0.215,1.688-0.324
	C107.117,42.365,107.438,42.842,106.782,43.345z"/>
<path fill-rule="evenodd" clip-rule="evenodd" fill="#E5411A" d="M95.072,49.557c1.342,0.515,0.786,1.225,0.796,1.877
	c-0.566-0.056-1.132-0.112-1.698-0.168C94.085,50.646,92.963,49.894,95.072,49.557z"/>
<rect x="68.222" y="75.926" fill-rule="evenodd" clip-rule="evenodd" fill="none" width="89.334" height="22.686"/>
<text transform="matrix(1 0 0 1 68.2222 85.6553)" fill="#F20A2C" stroke="#000000" stroke-width="0.25" stroke-miterlimit="10" font-family="'TimesNewRomanPSMT'" font-size="14">NESRINE</text>
</svg>
